<svg width="16" height="16" viewBox="0 0 16 16" fill="none" xmlns="http://www.w3.org/2000/svg">
<g clip-path="url(#clip0)">
<path d="M9.14581 5.06542C9.09595 4.74231 9.06796 4.41735 9.06796 4.09474C9.07409 3.98036 9.08982 3.85801 9.11062 3.73242H6.89228C6.91255 3.85372 6.92773 3.97131 6.93386 4.08006C6.93386 4.40877 6.90588 4.73827 6.85547 5.06539H9.14581V5.06542Z" fill="#657F91"/>
<path d="M10.9335 11.7303V10.3901C10.9039 9.30827 10.3312 8.15953 9.87082 7.23683L9.75857 7.01104C9.53544 6.55969 9.36452 6.08383 9.24856 5.59863H6.75271C6.63675 6.08517 6.46612 6.56023 6.24325 7.01104L6.131 7.23683C5.6706 8.15953 5.09793 9.30827 5.06836 10.3973V11.7303C5.06836 12.6423 5.32697 13.4591 5.59196 14.2176C5.9996 15.3837 6.55598 16.0001 7.20113 16.0001H8.80071C9.44587 16.0001 10.0022 15.3837 10.4099 14.2176C10.6748 13.4591 10.9335 12.6423 10.9335 11.7303Z" fill="#657F91"/>
<path d="M6.59168 2.52519C6.65035 2.72622 6.71803 2.96027 6.77829 3.19915H9.22454C9.2848 2.95948 9.35223 2.72568 9.41089 2.52519C9.45063 2.3895 9.48661 2.26525 9.51539 2.15783C9.62681 1.74006 9.62868 1.3687 9.52044 1.05387C9.18589 0.0807714 8.61087 0 8.00142 0C7.39171 0 6.81669 0.0807714 6.48211 1.05384C6.37415 1.3687 6.37573 1.74006 6.48716 2.15808C6.51596 2.26525 6.5522 2.38947 6.59168 2.52519Z" fill="#657F91"/>
<path d="M12.8782 5.06542C12.8284 4.74231 12.8004 4.41735 12.8004 4.09474C12.8065 3.98036 12.8222 3.85801 12.843 3.73242H10.6247C10.645 3.85372 10.6602 3.97131 10.6663 4.08006C10.6663 4.40877 10.6383 4.73827 10.5879 5.06539H12.8782V5.06542Z" fill="#657F91"/>
<path d="M10.3241 2.52519C10.3828 2.72622 10.4505 2.96027 10.5107 3.19915H12.957C13.0172 2.95948 13.0847 2.72568 13.1433 2.52519C13.1831 2.3895 13.2191 2.26525 13.2478 2.15783C13.3593 1.74006 13.3611 1.3687 13.2529 1.05387C12.9183 0.0807714 12.3433 0 11.7338 0C11.1241 0 10.5491 0.0807714 10.2145 1.05384C10.1066 1.3687 10.1082 1.74006 10.2196 2.15808C10.2484 2.26525 10.2847 2.38947 10.3241 2.52519Z" fill="#657F91"/>
<path d="M13.6034 7.23687L13.4912 7.01132C13.2678 6.55998 13.0971 6.08412 12.9809 5.59863H10.4853C10.4035 5.94122 10.2934 6.27765 10.1582 6.60448C10.1843 6.66127 10.2089 6.71886 10.2366 6.77482L10.3483 6.99928C10.8319 7.96864 11.4339 9.17576 11.4664 10.3757L11.4666 11.7303C11.4666 12.7263 11.1934 13.5919 10.9132 14.3936C10.7074 14.9827 10.473 15.4141 10.2294 15.7311C10.4477 15.91 10.6831 16.0001 10.9335 16.0001H12.533C13.1782 16.0001 13.7349 15.3837 14.1422 14.2176C14.4072 13.4591 14.6658 12.6425 14.6658 11.7303V10.3901C14.6365 9.3083 14.0636 8.15981 13.6034 7.23687Z" fill="#657F91"/>
<path d="M2.85923 2.52519C2.9179 2.72622 2.98558 2.96027 3.04583 3.19915H5.4921C5.55235 2.95948 5.61978 2.72568 5.67845 2.52519C5.71818 2.3895 5.75417 2.26525 5.78294 2.15783C5.89437 1.74006 5.89624 1.3687 5.788 1.05387C5.45348 0.0807714 4.87842 0 4.269 0C3.65929 0 3.08427 0.0807714 2.74968 1.05384C2.64172 1.3687 2.64331 1.74006 2.75473 2.15808C2.78354 2.26525 2.81978 2.38947 2.85923 2.52519Z" fill="#657F91"/>
<path d="M5.41339 5.06542C5.36352 4.74231 5.33554 4.41735 5.33554 4.09474C5.34167 3.98036 5.35739 3.85801 5.3782 3.73242H3.15986C3.18012 3.85372 3.19531 3.97131 3.20144 4.08006C3.20144 4.40877 3.17345 4.73827 3.12305 5.06539H5.41339V5.06542Z" fill="#657F91"/>
<path d="M4.53509 11.7303V10.3973C4.56816 9.17554 5.17011 7.96867 5.65373 6.99878L5.76569 6.77377C5.79316 6.71806 5.81768 6.66073 5.84354 6.60422C5.7081 6.27711 5.59773 5.94039 5.51616 5.59863H3.02029C2.90432 6.08517 2.7337 6.56023 2.51082 7.01104L2.39857 7.23683C1.93818 8.15953 1.36551 9.30827 1.33594 10.3973V11.7303C1.33594 12.6423 1.59455 13.4591 1.85954 14.2176C2.26717 15.3837 2.82355 16.0001 3.46871 16.0001H5.06828C5.31889 16.0001 5.55402 15.9097 5.77236 15.7308C5.52896 15.4141 5.29462 14.9827 5.08855 14.3936C4.80863 13.5919 4.53509 12.726 4.53509 11.7303Z" fill="#657F91"/>
</g>
<defs>
<clipPath id="clip0">
<rect width="16" height="16" fill="white"/>
</clipPath>
</defs>
</svg>
