<svg width="26" height="26" viewBox="0 0 26 26" fill="none" xmlns="http://www.w3.org/2000/svg">
<g clip-path="url(#clip0)">
<path d="M14.4364 13.001L25.7025 1.73481C26.0992 1.33816 26.0992 0.695066 25.7025 0.298465C25.3059 -0.0981356 24.6628 -0.0981863 24.2662 0.298465L13 11.5647L1.73383 0.298465C1.33718 -0.0981863 0.694089 -0.0981863 0.297489 0.298465C-0.0991121 0.695117 -0.0991629 1.33821 0.297489 1.73481L11.5636 13.001L0.297489 24.2672C-0.0991629 24.6638 -0.0991629 25.3069 0.297489 25.7035C0.495789 25.9018 0.755738 26.0009 1.01569 26.0009C1.27564 26.0009 1.53553 25.9018 1.73388 25.7035L13 14.4374L24.2661 25.7035C24.4644 25.9018 24.7244 26.0009 24.9843 26.0009C25.2443 26.0009 25.5042 25.9018 25.7025 25.7035C26.0992 25.3069 26.0992 24.6638 25.7025 24.2672L14.4364 13.001Z" fill="#0D3E8A"/>
</g>
<defs>
<clipPath id="clip0">
<rect width="26" height="26" fill="white"/>
</clipPath>
</defs>
</svg>
