<svg width="16" height="16" viewBox="0 0 16 16" fill="none" xmlns="http://www.w3.org/2000/svg">
<g clip-path="url(#clip0)">
<path d="M7.97656 1.94163C8.23544 1.94163 8.44531 1.73175 8.44531 1.47288V0.468691C8.42247 -0.152152 7.53078 -0.152496 7.50781 0.468691V1.47288C7.50781 1.73175 7.71769 1.94163 7.97656 1.94163Z" fill="#657F91"/>
<path d="M5.63741 1.30224C6.09269 1.72515 6.72328 1.09471 6.30031 0.639336L5.79825 0.137273C5.61522 -0.0457578 5.31841 -0.0457578 5.13534 0.137273C4.95228 0.320305 4.95228 0.617117 5.13534 0.80018L5.63741 1.30224Z" fill="#657F91"/>
<path d="M10.3162 1.30224L10.8182 0.80018C11.0013 0.617148 11.0013 0.320336 10.8182 0.137273C10.6352 -0.0457578 10.3384 -0.0457578 10.1553 0.137273L9.65326 0.639336C9.23038 1.09462 9.86079 1.72521 10.3162 1.30224Z" fill="#657F91"/>
<path d="M9.18067 9.64723C9.5232 10.9249 10.7362 11.7415 12.0109 11.6303L12.8134 14.6248L11.1213 15.0782C10.5279 15.2607 10.7576 16.1223 11.364 15.9838C12.433 15.6973 14.5846 15.1209 15.6535 14.8344C15.9035 14.7674 16.052 14.5104 15.985 14.2604C15.918 14.0103 15.6609 13.8619 15.4109 13.9289L13.719 14.3822L12.9165 11.3879C14.0845 10.8447 14.7167 9.52698 14.3757 8.25491L14.0544 7.05566H8.48633L9.18067 9.64723Z" fill="#657F91"/>
<path d="M12.7656 2.24987C12.6986 1.99981 12.4415 1.85143 12.1915 1.91843L7.90221 3.06771C7.65218 3.13471 7.50377 3.39174 7.57077 3.64178L8.23427 6.11825H13.8023L12.7656 2.24987Z" fill="#657F91"/>
<path d="M1.62534 8.25491C1.28431 9.52695 1.91662 10.8447 3.08452 11.3879L2.28209 14.3822L0.59018 13.9289C0.340118 13.8619 0.0830865 14.0103 0.0160865 14.2604C-0.0509135 14.5104 0.0974928 14.7674 0.347524 14.8344C1.41737 15.121 3.56759 15.6972 4.63709 15.9837C5.24205 16.1225 5.47424 15.2614 4.87974 15.0782L3.18765 14.6248L3.99015 11.6303C5.26487 11.7415 6.47787 10.9249 6.8204 9.64723L7.51474 7.05566H1.94671L1.62534 8.25491Z" fill="#657F91"/>
<path d="M6.66442 3.88443C6.55833 3.4915 6.6282 3.07237 6.85655 2.73528L3.80798 1.91843C3.55792 1.85143 3.30089 1.99981 3.23389 2.24987L2.19727 6.11828H7.26289L6.66442 3.88443Z" fill="#657F91"/>
</g>
<defs>
<clipPath id="clip0">
<rect width="16" height="16" fill="white"/>
</clipPath>
</defs>
</svg>
