<svg width="24" height="24" viewBox="0 0 24 24" fill="none" xmlns="http://www.w3.org/2000/svg">
<path d="M24 12C24 11.8542 23.9974 11.709 23.9923 11.5645C23.763 5.13881 18.4816 0 12 0C5.51836 0 0.237 5.13881 0.00778125 11.5645C0.002625 11.709 0 11.8542 0 12C0 18.6274 6.16416 23.5645 12 23.5645C17.9416 23.5645 24 18.6274 24 12Z" fill="#1E53B4"/>
<path d="M12 23.129C5.51845 23.129 0.238031 17.99 0.00871875 11.5645C0.00351563 11.7091 0 11.8541 0 12C0 18.6274 5.37258 24 12 24C18.6274 24 24 18.6274 24 12C24 11.8541 23.9965 11.7091 23.9913 11.5645C23.762 17.9901 18.4815 23.129 12 23.129Z" fill="#1E53B4"/>
<path d="M22.0044 11.5642C21.7764 6.23602 17.3847 1.98633 12.0004 1.98633C6.6161 1.98633 2.22438 6.23602 1.99638 11.5642C1.99019 11.7086 1.99633 21.3761 12.0004 21.3761C22.0045 21.3761 22.0106 11.7086 22.0044 11.5642Z" fill="#E4EEF9"/>
<path d="M11.9997 21.1423C6.61542 21.1423 2.22441 16.8925 1.99631 11.5645C1.99013 11.7089 1.98633 11.854 1.98633 11.9999C1.98633 17.5301 6.46945 22.0133 11.9997 22.0133C17.5299 22.0133 22.013 17.5302 22.013 12C22.013 11.854 22.0092 11.7089 22.003 11.5645C21.7749 16.8926 17.3839 21.1423 11.9997 21.1423Z" fill="#D5E0F2"/>
<path d="M15.6378 8.48642C15.3524 8.20493 14.8928 8.20807 14.6114 8.49345L12.9082 10.2202L13.0793 11.0422L13.8749 11.3073L15.6449 9.51284C15.9263 9.22746 15.9232 8.7679 15.6378 8.48642Z" fill="#232323"/>
<path d="M10.9736 10.2862L7.11101 6.84411C6.81172 6.57739 6.35295 6.60383 6.08628 6.90313C5.81961 7.20238 5.846 7.66119 6.1453 7.92786L10.084 11.4378L10.9047 11.164L10.9736 10.2862Z" fill="#232323"/>
<path d="M17.1396 16.6801C17.0572 16.6801 16.9744 16.6522 16.9064 16.5951L12.3092 12.7336C12.1558 12.6047 12.1358 12.3757 12.2647 12.2223C12.3936 12.0688 12.6225 12.0489 12.776 12.1778L17.3732 16.0394C17.5266 16.1683 17.5466 16.3972 17.4177 16.5506C17.3459 16.6361 17.2431 16.6801 17.1396 16.6801Z" fill="#86DCFF"/>
<path d="M10.082 11.4377L10.7598 12.0417L11.6303 11.7459L11.5831 10.831L10.9717 10.2861C10.5463 10.5417 10.2243 10.9513 10.082 11.4377Z" fill="#232323"/>
<path d="M12.9083 10.2207L12.332 10.805V11.9518H13.2398L13.8751 11.3078C13.7005 10.8355 13.3524 10.4477 12.9083 10.2207Z" fill="#232323"/>
<path d="M13.1624 11.5646C12.986 11.0944 12.5324 10.7598 12.0007 10.7598C11.4689 10.7598 11.0153 11.0944 10.839 11.5646C10.7882 11.7001 10.8356 12.805 12.0007 12.805C13.1658 12.805 13.2132 11.7001 13.1624 11.5646Z" fill="#1E53B4"/>
<path d="M12.0001 12.3693C11.4684 12.3693 11.015 12.0346 10.8386 11.5645C10.7877 11.7 10.7598 11.8466 10.7598 11.9999C10.7598 12.685 11.3151 13.2402 12.0001 13.2402C12.6851 13.2402 13.2404 12.6849 13.2404 11.9999C13.2404 11.8466 13.2124 11.7 13.1616 11.5645C12.9853 12.0346 12.5319 12.3693 12.0001 12.3693Z" fill="#1E53B4"/>
</svg>
