<svg width="16" height="16" viewBox="0 0 16 16" fill="none" xmlns="http://www.w3.org/2000/svg">
<path d="M4.83398 11.1267C4.41089 10.884 4.125 10.4281 4.125 9.90625C4.125 7.75232 5.87732 6 8.03125 6H9.64099L9.7168 4.75H0.595703L1.25085 15.5596C1.26587 15.807 1.47083 16 1.71875 16H4.59497C4.30005 15.608 4.125 15.121 4.125 14.5938C4.125 13.986 4.51269 13.467 5.05371 13.2711C4.86194 12.9771 4.75 12.6265 4.75 12.25C4.75 11.8732 4.86218 11.5222 5.05432 11.2279C4.90149 11.1935 4.81665 11.1597 4.83398 11.1267Z" fill="#657F91"/>
<path d="M5.15576 3.81262C5.15613 3.81262 5.15649 3.8125 5.15686 3.8125H9.84375C10.1027 3.8125 10.3125 3.60266 10.3125 3.34375C10.3125 3.08484 10.1027 2.875 9.84375 2.875H6.02161L7.28516 0.9375H8.90625C9.16516 0.9375 9.375 0.727661 9.375 0.46875C9.375 0.209839 9.16516 0 8.90625 0H7.03125C6.8728 0 6.7251 0.0799561 6.63867 0.212646L4.90234 2.875H0.46875C0.209839 2.875 0 3.08484 0 3.34375C0 3.60266 0.209839 3.8125 0.46875 3.8125H5.15405C5.15466 3.8125 5.15527 3.81262 5.15576 3.81262Z" fill="#657F91"/>
<path d="M5.0625 9.90625C5.0625 10.1652 5.27234 10.375 5.53125 10.375H15.5312C15.7902 10.375 16 10.1652 16 9.90625C16 8.26929 14.6682 6.9375 13.0312 6.9375H8.03125C6.39429 6.9375 5.0625 8.26929 5.0625 9.90625Z" fill="#657F91"/>
<path d="M6.625 11.3125C6.10718 11.3125 5.6875 11.7322 5.6875 12.25C5.6875 12.7678 6.10718 13.1875 6.625 13.1875H14.4375C14.9553 13.1875 15.375 12.7678 15.375 12.25C15.375 11.7322 14.9553 11.3125 14.4375 11.3125H6.625Z" fill="#657F91"/>
<path d="M15.5312 14.125H5.53125C5.27234 14.125 5.0625 14.3348 5.0625 14.5938C5.0625 15.3691 5.69336 16 6.46875 16H14.5938C15.3691 16 16 15.3691 16 14.5938C16 14.3348 15.7902 14.125 15.5312 14.125Z" fill="#657F91"/>
</svg>
