<svg width="16" height="16" viewBox="0 0 16 16" fill="none" xmlns="http://www.w3.org/2000/svg">
<path d="M4.16636 12.3542C3.09907 12.3542 2.14971 11.6708 1.80497 10.6535L1.78165 10.5768C1.70035 10.3074 1.66629 10.0808 1.66629 9.85412V5.30859L0.0489455 10.7074C-0.159067 11.5015 0.314943 12.3248 1.11025 12.5441L11.4192 15.3049C11.5479 15.3383 11.6766 15.3542 11.8033 15.3542C12.4672 15.3542 13.0739 14.9136 13.244 14.2641L13.8446 12.3542H4.16636Z" fill="#657F91"/>
<path d="M5.99942 5.35431C6.73479 5.35431 7.3327 4.75628 7.3327 4.02091C7.3327 3.28554 6.73479 2.6875 5.99942 2.6875C5.26405 2.6875 4.66602 3.28554 4.66602 4.02091C4.66602 4.75628 5.26405 5.35431 5.99942 5.35431Z" fill="#657F91"/>
<path d="M14.3329 0.6875H4.33268C3.41408 0.6875 2.66602 1.43557 2.66602 2.35429V9.68772C2.66602 10.6064 3.41408 11.3545 4.33268 11.3545H14.3329C15.2516 11.3545 15.9997 10.6064 15.9997 9.68772V2.35429C15.9997 1.43557 15.2516 0.6875 14.3329 0.6875ZM4.33268 2.02091H14.3329C14.517 2.02091 14.6663 2.1702 14.6663 2.35429V7.08707L12.5603 4.62961C12.3369 4.36764 12.0135 4.22763 11.6662 4.21969C11.3209 4.22164 10.9969 4.37497 10.7756 4.64036L8.29945 7.61235L7.49279 6.80765C7.03685 6.3517 6.29477 6.3517 5.83943 6.80765L3.99942 8.64705V2.35429C3.99942 2.1702 4.14872 2.02091 4.33268 2.02091Z" fill="#657F91"/>
</svg>
