<svg width="16" height="16" viewBox="0 0 16 16" fill="none" xmlns="http://www.w3.org/2000/svg">
<path d="M8.00163 0C4.80647 0 2.20703 2.59944 2.20703 5.79456C2.20703 9.75981 7.39262 15.581 7.61341 15.8269C7.82078 16.0579 8.18284 16.0575 8.38984 15.8269C8.61063 15.581 13.7962 9.75981 13.7962 5.79456C13.7962 2.59944 11.1968 0 8.00163 0ZM8.00163 8.70997C6.39406 8.70997 5.08625 7.40212 5.08625 5.79456C5.08625 4.187 6.39409 2.87919 8.00163 2.87919C9.60916 2.87919 10.917 4.18703 10.917 5.79459C10.917 7.40216 9.60916 8.70997 8.00163 8.70997Z" fill="#09337B"/>
</svg>
