<svg width="10" height="10" viewBox="0 0 10 10" fill="none" xmlns="http://www.w3.org/2000/svg">
<g clip-path="url(#clip0)">
<path d="M7.77786 4.60979L3.32776 0.159755C3.22484 0.0567476 3.08744 1.79207e-07 2.94094 1.53592e-07C2.79444 1.27976e-07 2.65704 0.0567475 2.55412 0.159755L2.2264 0.487393C2.01315 0.700887 2.01315 1.04788 2.2264 1.26104L5.96325 4.99792L2.22225 8.73894C2.11933 8.84194 2.0625 8.97926 2.0625 9.12568C2.0625 9.27226 2.11933 9.40958 2.22225 9.51267L2.54997 9.84023C2.65298 9.94323 2.79029 9.99998 2.93679 9.99998C3.0833 9.99998 3.22069 9.94323 3.32362 9.84023L7.77786 5.38613C7.88103 5.28279 7.93769 5.14483 7.93737 4.99816C7.93769 4.85093 7.88103 4.71304 7.77786 4.60979Z" fill="white"/>
</g>
<defs>
<clipPath id="clip0">
<rect width="10" height="10" fill="white"/>
</clipPath>
</defs>
</svg>
