<svg width="30" height="30" viewBox="0 0 30 30" fill="none" xmlns="http://www.w3.org/2000/svg">
<path d="M15 30C23.2843 30 30 23.2843 30 15C30 6.71573 23.2843 0 15 0C6.71573 0 0 6.71573 0 15C0 23.2843 6.71573 30 15 30Z" fill="#1E53B4"/>
<path d="M22.5 18.1013C20.8819 18.1013 19.3388 17.7488 17.9156 17.0531C17.6925 16.9463 17.4338 16.9294 17.1975 17.01C16.9613 17.0925 16.7681 17.265 16.6594 17.4881L15.9844 18.885C13.9594 17.7225 12.2794 16.0406 11.115 14.0156L12.5137 13.3406C12.7387 13.2319 12.9094 13.0388 12.9919 12.8025C13.0725 12.5663 13.0575 12.3075 12.9488 12.0844C12.2513 10.6631 11.8988 9.12 11.8988 7.5C11.8988 6.9825 11.4788 6.5625 10.9613 6.5625H7.5C6.9825 6.5625 6.5625 6.9825 6.5625 7.5C6.5625 16.2881 13.7119 23.4375 22.5 23.4375C23.0175 23.4375 23.4375 23.0175 23.4375 22.5V19.0388C23.4375 18.5213 23.0175 18.1013 22.5 18.1013Z" fill="#FAFAFA"/>
</svg>
