<svg width="81" height="22" viewBox="0 0 81 22" fill="none" xmlns="http://www.w3.org/2000/svg">
<path fill-rule="evenodd" clip-rule="evenodd" d="M9.72328 18.1297C8.90157 19.6243 6.8472 20.4396 4.79286 20.5754C3.28634 20.7113 1.77982 20.3037 0.958081 19.3525C0.41025 18.6731 0.136337 17.4503 0.958081 16.3633C2.19069 14.8687 5.47764 14.3252 7.94286 15.4122C8.62765 13.6459 8.62764 11.4718 9.03848 9.43376C6.29938 9.97725 3.56025 9.84138 1.36894 8.3468C0.547206 7.93917 1.23199 5.90107 1.64286 5.35758C3.83416 7.39568 6.57329 7.93917 9.31239 7.66743C9.72328 5.90108 10.545 3.7271 11.9146 2.23249C13.5581 0.330256 16.0233 0.058509 17.5298 0.87375C18.6255 1.41725 19.3103 2.50423 18.7624 3.86297C18.0776 5.62932 14.5168 7.53156 12.1885 8.48267C11.6407 11.4718 11.5037 14.7329 10.545 16.6351C16.0233 19.4884 22.7342 19.8961 27.8015 16.6351C28.0755 16.9068 28.3494 17.4503 28.4863 17.8579C29.0341 19.4885 27.9385 20.4396 26.5689 20.9831C24.6516 21.6624 22.0494 21.6624 19.3103 21.3907C15.7494 20.8472 11.9146 19.6243 9.72328 18.1297ZM15.4754 9.56964C16.2972 10.249 17.3928 9.56964 17.6667 8.89028C18.2146 7.93917 17.9406 6.58044 16.0233 7.12393C14.7907 7.53156 14.3798 8.75441 15.4754 9.56964ZM76.4212 9.16202C76.5581 7.66743 78.0646 7.8033 78.2016 8.89028C78.2016 9.29789 78.2016 9.56964 77.7907 9.97725C78.2016 10.3849 78.6125 10.5207 79.0233 10.5207C79.8451 10.5207 80.5298 9.70551 80.3929 8.61854C80.2559 7.39568 79.4342 6.17282 77.6538 6.30869C76.1473 6.30869 75.0516 7.12393 74.7776 8.3468C73.682 11.6077 76.5581 12.8307 75.8733 15.4122C75.5994 16.3633 74.9146 17.1786 74.0928 17.722C72.0385 18.9449 68.8885 19.3525 66.5603 18.5373C65.8755 20.032 67.9298 20.5754 69.9842 20.7113C72.1755 20.8472 74.7776 20.5754 76.5581 19.2166C77.2429 18.6731 77.9277 17.9938 78.2016 17.1786C80.119 13.2383 76.2842 11.7436 76.4212 9.16202ZM53.6864 6.71632C52.1798 6.71632 49.8516 6.03695 49.1668 4.94995C48.7559 4.27059 48.8929 3.1836 49.4407 1.82486C51.2211 2.77598 53.6864 3.59122 57.1102 3.1836C61.7668 2.6401 68.2037 -1.16436 72.0385 3.7271C73.4081 5.49345 73.9559 8.3468 73.682 11.0642C73.2711 13.7818 71.9015 16.4992 69.4363 17.5862C65.7385 19.0808 63.6842 15.684 63.8212 12.423C63.8212 11.2001 64.232 9.84138 65.0538 8.48267C66.4233 6.17282 69.7103 5.49345 70.8059 6.85219C71.2168 7.2598 71.4907 7.93917 71.2168 8.75441C71.0798 9.70551 70.532 9.97725 70.395 9.70551C69.8472 8.21092 68.7516 8.21092 67.6559 9.02615C66.2864 10.1131 66.2864 12.2872 66.6972 13.9176C67.2451 15.8198 69.0255 16.7709 70.8059 14.1894C72.5863 11.7436 72.8602 6.85219 70.395 4.81408C68.3407 3.04773 65.1907 3.59122 62.0407 4.54234C59.3015 5.62932 56.2885 6.85219 53.6864 6.71632ZM60.3972 11.6077C60.5341 10.3849 59.4385 9.70551 58.6167 9.70551C57.3841 9.70551 56.0146 10.7925 55.4668 13.1024C54.919 15.4122 55.3298 17.8579 56.8363 18.4014C58.2059 18.809 59.7124 17.3144 59.9863 15.2763L60.3972 11.6077ZM60.1233 17.9938C59.3015 19.4885 58.2059 20.3037 56.8363 20.1678C54.782 20.032 53.6864 18.2655 53.2755 16.2275C52.7277 13.51 53.5494 10.1131 55.4668 8.21092C56.2885 7.39568 57.6581 6.71632 58.8907 6.85219C59.7124 6.98806 60.5341 7.39568 60.945 8.21092L61.2189 6.58044C62.4516 5.90108 64.0951 6.71632 63.8212 7.93917C63.5472 9.97725 63.1364 11.7436 62.8625 13.7818C62.5886 15.1405 62.3147 16.9068 63.1364 17.8579C63.5473 18.2655 63.9581 18.5373 64.9168 18.4014C64.9168 19.6243 64.0951 20.1678 63.1364 20.1678C61.7668 20.4396 60.5341 19.7602 60.1233 17.9938ZM44.5102 8.21092C44.6472 7.2598 45.195 6.71632 45.8798 6.58044C46.7015 6.17282 47.7972 6.44456 48.2081 6.58044C47.9342 6.98806 47.1124 11.336 46.8385 12.2872C47.1124 11.6077 47.5233 10.3849 48.2081 9.43376C49.1668 8.07505 50.5364 7.2598 51.4951 7.53156C52.1798 7.66743 52.7277 8.48267 52.5907 10.1131C52.4537 11.4718 51.4951 13.7818 51.3581 15.8198C51.2212 18.2655 52.3168 18.809 53.6864 18.5373C53.8233 19.6243 53.2755 20.3037 52.4538 20.4396C51.9059 20.5754 51.3581 20.4396 50.8103 20.1678C48.619 18.809 49.3038 15.8198 49.8516 13.7818C50.6733 10.7925 49.3038 10.5207 48.3451 12.1513C47.6603 12.6948 47.2494 13.51 46.9755 14.3252C46.2907 16.2275 46.0167 17.5862 45.6059 19.3525C45.195 20.5754 43.0037 20.7113 43.1407 19.3525L44.5102 8.21092ZM40.9494 11.4718C39.9907 11.336 39.3059 10.1131 39.7168 9.02615C40.1276 7.8033 41.6342 7.39568 42.3189 8.89028C43.9624 12.0154 42.4559 17.0427 40.2646 19.3525C39.4429 20.1678 38.4842 20.5754 37.5255 20.5754C34.7864 20.5754 33.1429 17.8579 33.0059 14.7329C33.0059 12.6948 33.4168 10.6566 34.5125 9.02615C35.7451 7.12393 37.9364 6.03695 39.8537 6.44456C40.1276 7.53156 39.5798 8.75441 38.6211 9.29789C37.6624 9.56964 36.8407 10.5207 36.4298 11.7437C36.019 12.8307 35.7451 14.1894 35.882 15.4122C36.019 17.1786 36.5668 18.6731 37.6624 18.809C39.032 19.0808 39.9907 17.9938 40.4016 16.6351C40.9494 14.8687 41.0863 12.8307 40.9494 11.4718ZM20.269 5.62932C20.5429 4.54234 22.7342 3.99884 23.5559 4.54234C22.7342 7.39568 22.1864 10.3849 21.9125 11.336C22.5972 9.84138 23.419 6.71632 25.4733 6.71632C28.3494 6.71632 27.2537 10.249 26.8429 11.6077C27.8015 9.56964 28.6233 6.58044 30.8146 6.85219C32.595 7.12393 32.3211 9.16202 31.9102 11.336C31.6363 13.1024 31.0885 14.8687 31.2254 16.0916C31.3624 17.0427 31.6363 17.8579 32.0472 18.2655C32.458 18.6731 33.0059 18.809 33.6907 18.809C33.9646 20.1678 32.0472 20.8472 30.6776 20.1678C29.7189 19.6243 29.1711 18.5373 29.1711 16.7709C29.0341 13.7818 30.4037 10.9284 29.7189 10.3849C29.3081 9.97725 28.4863 10.6566 28.0755 11.6077C26.9798 13.9176 26.9798 15.0046 26.1581 16.3633C25.6103 17.3144 23.6929 17.722 23.8298 16.4992C23.9668 15.4122 24.3777 13.2383 24.7885 11.4718C25.0624 9.97725 25.0624 9.29789 24.2407 9.43376C23.282 9.70551 21.5016 13.7818 21.0907 16.9068C20.9538 17.9938 18.4885 18.9449 18.4885 17.4503C18.4885 16.0916 18.7624 14.1894 19.0363 12.0154C19.4472 9.56964 19.9951 7.12393 20.269 5.62932ZM15.4754 10.3849C15.8863 10.3849 16.4341 10.249 16.845 10.3849C16.4341 11.8795 16.2972 13.2383 16.0233 15.0046C15.8863 16.3633 16.5711 17.1786 17.3928 17.3144C17.8037 17.4503 17.3928 17.9938 17.1189 18.1297C16.2972 18.4014 15.0646 18.1297 14.2428 17.4503C13.695 16.9068 13.5581 16.3633 13.5581 15.684C13.5581 14.597 13.695 13.3741 13.9689 12.0154C14.2428 11.0642 14.7907 10.5207 15.4754 10.3849ZM7.39504 16.7709C5.47764 15.5481 2.60155 16.4992 2.4646 17.5862C2.32764 18.5373 3.83416 19.0808 5.20373 18.6731C6.02547 18.5373 6.98416 17.8579 7.39504 16.7709ZM12.3255 6.98806C14.2428 6.17282 15.6124 4.94995 16.1602 3.86297C16.845 2.23249 15.8863 1.28138 15.0646 1.55312C13.5581 2.09662 12.5994 5.22171 12.3255 6.98806Z" fill="#1E53B4"/>
</svg>
