<svg width="16" height="16" viewBox="0 0 16 16" fill="none" xmlns="http://www.w3.org/2000/svg">
<g clip-path="url(#clip0)">
<path d="M15.9038 8.22127C15.7307 7.91358 15.3269 7.7982 15 7.9905L12.8077 9.25971L12.25 9.58663V12.6251L12.7692 12.9327C12.7885 12.9327 12.7885 12.952 12.8077 12.952L14.9615 14.202C15.0577 14.2789 15.1923 14.3173 15.3269 14.3173C15.6923 14.3173 15.9807 14.0289 15.9807 13.6635V11.0866L16 8.54819C16 8.4328 15.9807 8.31742 15.9038 8.22127Z" fill="#657F91"/>
<path d="M3.09631 7.24009C4.80783 7.24009 6.19243 5.85549 6.19243 4.14397C6.19243 2.43245 4.80783 1.04785 3.09631 1.04785C1.38479 1.04785 0.00019525 2.43245 0.00019525 4.14397C-0.0190353 5.85549 1.38479 7.24009 3.09631 7.24009ZM3.09631 2.87475C3.80784 2.87475 4.36553 3.45167 4.36553 4.14397C4.36553 4.8555 3.78861 5.41318 3.09631 5.41318C2.40401 5.41318 1.8271 4.83627 1.8271 4.14397C1.80787 3.43244 2.38478 2.87475 3.09631 2.87475Z" fill="#657F91"/>
<path d="M10.9413 7.41301C10.4413 7.66301 9.88359 7.81685 9.28745 7.81685C8.55669 7.81685 7.86439 7.60531 7.28747 7.2207H5.09519C4.51828 7.60531 3.82598 7.81685 3.09522 7.81685C2.49907 7.81685 1.94139 7.68224 1.4414 7.41301C0.999095 7.66301 0.691406 8.163 0.691406 8.70145V13.3937C0.691406 14.2591 1.40294 14.9514 2.24908 14.9514H10.1528C11.0182 14.9514 11.7105 14.2398 11.7105 13.3937V8.70145C11.6913 8.163 11.3836 7.66301 10.9413 7.41301Z" fill="#657F91"/>
<path d="M9.28753 7.24009C10.9991 7.24009 12.3837 5.85549 12.3837 4.14397C12.3837 2.43245 10.9991 1.04785 9.28753 1.04785C7.57601 1.04785 6.19141 2.43245 6.19141 4.14397C6.19141 5.85549 7.57601 7.24009 9.28753 7.24009ZM9.28753 2.87475C9.99906 2.87475 10.5567 3.45167 10.5567 4.14397C10.5567 4.8555 9.97983 5.41318 9.28753 5.41318C8.59523 5.41318 8.01831 4.83627 8.01831 4.14397C8.01831 3.43244 8.576 2.87475 9.28753 2.87475Z" fill="#657F91"/>
</g>
<defs>
<clipPath id="clip0">
<rect width="16" height="16" fill="white"/>
</clipPath>
</defs>
</svg>
