<svg width="16" height="16" viewBox="0 0 16 16" fill="none" xmlns="http://www.w3.org/2000/svg">
<path d="M13.1145 7.42857C12.9377 5.64857 11.9428 4.11107 10.5127 3.19179L9.71484 0H5.14341L4.34484 3.19439C2.76438 4.21089 1.71484 5.98121 1.71484 8C1.71484 10.0188 2.76434 11.789 4.34484 12.8056L5.14341 16H9.71484L10.5128 12.8082C11.9428 11.8888 12.9377 10.3514 13.1145 8.57143H14.2863V7.42857H13.1145ZM7.42913 12.5714C4.90841 12.5714 2.8577 10.5207 2.8577 8C2.8577 5.47932 4.90841 3.42857 7.42913 3.42857C9.94984 3.42857 12.0006 5.47932 12.0006 8C12.0006 10.5207 9.94984 12.5714 7.42913 12.5714Z" fill="#232323"/>
<path d="M8.00028 8.04369V5.14258H6.85742V8.39572L8.29967 10.4768L9.23399 9.83058L8.00028 8.04369Z" fill="#232323"/>
</svg>
