<svg width="18" height="18" viewBox="0 0 18 18" fill="none" xmlns="http://www.w3.org/2000/svg">
<path d="M10.9825 9.00039L17.7124 2.27015C17.8976 2.08488 17.9997 1.83771 18 1.57415C18 1.31044 17.8979 1.06298 17.7124 0.878001L17.1227 0.288391C16.9373 0.102684 16.6901 0.000976562 16.4262 0.000976562C16.1628 0.000976562 15.9157 0.102684 15.7302 0.288391L9.00029 7.0182L2.27005 0.288391C2.08493 0.102684 1.83761 0.000976562 1.5739 0.000976562C1.31049 0.000976562 1.06317 0.102684 0.878049 0.288391L0.288 0.878001C-0.096 1.262 -0.096 1.88659 0.288 2.27015L7.0181 9.00039L0.288 15.7303C0.102732 15.9159 0.000731707 16.1631 0.000731707 16.4266C0.000731707 16.6902 0.102732 16.9374 0.288 17.1228L0.877902 17.7124C1.06302 17.898 1.31049 17.9998 1.57376 17.9998C1.83746 17.9998 2.08478 17.898 2.2699 17.7124L9.00015 10.9824L15.7301 17.7124C15.9155 17.898 16.1627 17.9998 16.4261 17.9998H16.4264C16.69 17.9998 16.9371 17.898 17.1225 17.7124L17.7123 17.1228C17.8974 16.9375 17.9996 16.6902 17.9996 16.4266C17.9996 16.1631 17.8974 15.9159 17.7123 15.7305L10.9825 9.00039Z" fill="#0B3B5D"/>
</svg>
