<svg width="29" height="29" viewBox="0 0 29 29" fill="none" xmlns="http://www.w3.org/2000/svg">
<circle cx="14.5" cy="14.5" r="14.5" fill="#F1F7FD"/>
<path d="M6.97531 12.16C7.21531 12.16 7.44865 12.14 7.67531 12.1C7.90198 12.06 8.10531 11.9933 8.28531 11.9C8.47198 11.8067 8.62865 11.6867 8.75531 11.54C8.88865 11.3933 8.97531 11.2133 9.01531 11H9.94531V18H8.69531V13.06H6.97531V12.16ZM14.782 11.76C14.4753 11.76 14.2153 11.8533 14.002 12.04C13.7886 12.22 13.682 12.4833 13.682 12.83C13.682 13.1633 13.7853 13.42 13.992 13.6C14.1986 13.7733 14.462 13.86 14.782 13.86C15.102 13.86 15.3653 13.7733 15.572 13.6C15.7786 13.42 15.882 13.1633 15.882 12.83C15.882 12.4833 15.7753 12.22 15.562 12.04C15.3486 11.8533 15.0886 11.76 14.782 11.76ZM14.782 18.14C14.4286 18.14 14.0986 18.09 13.792 17.99C13.492 17.89 13.232 17.7467 13.012 17.56C12.792 17.3667 12.6186 17.1333 12.492 16.86C12.372 16.5867 12.312 16.28 12.312 15.94C12.312 15.5 12.4253 15.13 12.652 14.83C12.8853 14.53 13.1986 14.33 13.592 14.23V14.21C13.272 14.09 13.0253 13.9067 12.852 13.66C12.6853 13.4067 12.602 13.11 12.602 12.77C12.602 12.17 12.7886 11.7033 13.162 11.37C13.542 11.03 14.082 10.86 14.782 10.86C15.482 10.86 16.0186 11.03 16.392 11.37C16.772 11.7033 16.962 12.17 16.962 12.77C16.962 13.11 16.8753 13.4067 16.702 13.66C16.5353 13.9067 16.292 14.09 15.972 14.21V14.23C16.3653 14.33 16.6753 14.53 16.902 14.83C17.1353 15.13 17.252 15.5 17.252 15.94C17.252 16.28 17.1886 16.5867 17.062 16.86C16.942 17.1333 16.772 17.3667 16.552 17.56C16.332 17.7467 16.0686 17.89 15.762 17.99C15.462 18.09 15.1353 18.14 14.782 18.14ZM14.782 17.24C15.162 17.24 15.4786 17.1267 15.732 16.9C15.9853 16.6733 16.112 16.3533 16.112 15.94C16.112 15.5533 15.9853 15.2533 15.732 15.04C15.4786 14.82 15.162 14.71 14.782 14.71C14.402 14.71 14.0853 14.82 13.832 15.04C13.5786 15.2533 13.452 15.5533 13.452 15.94C13.452 16.3533 13.5786 16.6733 13.832 16.9C14.0853 17.1267 14.402 17.24 14.782 17.24ZM20.0486 12.94H21.0686V14.96H23.0786V15.98H21.0686V18H20.0486V15.98H18.0386V14.96H20.0486V12.94Z" fill="#1E53B4"/>
</svg>
